<svg xmlns="http://www.w3.org/2000/svg" width="1200" height="1200" viewBox="0 0 12000 12000"><g fill="rgb(255,0,131)" stroke="rgb(255,0,131)" stroke-width="10"><g><path d="M7828 10911 c-129 -18 -251 -45 -265 -59 -28 -29 -12 -56 47 -77 197 -70 279 -374 196 -725 -71 -302 -241 -698 -451 -1049 -208 -348 -389 -578 -871 -1108 -673 -739 -1027 -1178 -1391 -1723 -242 -362 -411 -656 -613 -1065 -357 -723 -514 -1306 -497 -1845 9 -265 49 -451 142 -646 104 -221 216 -350 372 -431 225 -117 380 -125 443 -21 32 53 35 106 10 199 -51 189 -55 222 -43 316 14 112 31 161 103 303 87 174 114 255 107 332 -3 35 -13 92 -22 128 -22 89 -31 341 -16 465 35 293 123 569 286 895 259 517 650 1033 1200 1585 256 256 414 401 775 710 641 547 1084 1061 1388 1610 129 233 237 509 284 725 30 140 32 471 5 620 -84 447 -329 740 -702 836 -83 22 -128 26 -265 29 -91 2 -191 0 -222 -4z"></path><path d="M7165 10694 c-445 -95 -1058 -490 -1647 -1064 -110 -107 -140 -150 -103 -150 9 0 85 36 169 79 477 248 810 329 990 241 58 -28 131 -107 164 -178 25 -52 27 -67 26 -177 0 -107 -3 -130 -31 -212 -71 -213 -208 -406 -498 -703 -771 -789 -1811 -2048 -2202 -2665 -356 -560 -633 -1158 -784 -1689 -164 -579 -175 -1032 -39 -1561 172 -666 591 -1134 1210 -1349 309 -108 757 -173 1120 -163 295 8 470 45 665 141 125 62 219 135 301 234 52 63 87 129 195 362 60 129 138 260 209 349 65 82 111 161 141 248 27 75 37 271 20 378 -25 152 -201 683 -303 910 -34 77 -62 165 -94 295 -78 316 -126 398 -257 439 -200 61 -448 45 -608 -40 -81 -44 -163 -135 -222 -246 -29 -55 -77 -180 -122 -317 -47 -143 -94 -266 -129 -335 -31 -61 -90 -194 -132 -298 -42 -103 -102 -242 -134 -308 -72 -147 -80 -177 -80 -286 0 -67 8 -118 36 -224 26 -104 34 -148 29 -179 -22 -131 -108 -210 -240 -223 -112 -10 -266 34 -400 115 -80 48 -231 196 -294 286 -137 198 -219 433 -252 716 -15 132 -6 456 16 600 134 866 646 1889 1533 3060 318 420 645 810 1068 1275 220 242 318 358 450 535 414 553 705 1134 769 1530 51 324 -46 531 -273 579 -71 15 -182 13 -267 -5z m-475 -7561 c41 -51 79 -132 87 -188 6 -45 6 -45 -33 -45 -55 1 -120 33 -144 72 -17 27 -20 46 -18 99 5 106 50 131 108 62z m-1082 -63 c29 -58 29 -117 -1 -161 -24 -37 -97 -79 -135 -79 -24 0 -25 1 -20 73 7 112 65 222 113 215 12 -2 29 -20 43 -48z"></path><path d="M5870 9454 c-372 -72 -730 -271 -1602 -892 -345 -246 -594 -416 -728 -497 -684 -415 -1482 -749 -2031 -849 -454 -84 -742 -44 -891 122 -47 52 -66 89 -78 154 -13 67 -28 82 -71 73 -133 -29 -338 -428 -410 -795 -31 -161 -31 -378 -1 -504 43 -172 133 -305 257 -378 171 -100 363 -143 690 -155 759 -28 1865 269 2645 710 580 328 1176 796 1651 1298 511 538 812 956 925 1284 23 65 28 98 28 175 1 82 -2 101 -23 137 -44 76 -121 113 -251 118 -47 2 -96 1 -110 -1z"></path><path d="M3510 9194 c-386 -26 -657 -67 -975 -149 -740 -190 -1363 -578 -1750 -1091 -104 -137 -141 -248 -121 -357 10 -52 59 -118 114 -154 165 -108 401 -119 772 -36 278 61 749 199 906 264 113 47 131 84 58 115 -30 12 -64 14 -188 8 -170 -7 -287 5 -352 37 -50 24 -72 65 -54 99 52 97 487 224 850 248 158 11 278 0 369 -34 69 -26 77 -26 137 -15 178 33 401 170 899 555 154 119 311 240 348 269 107 81 154 162 114 195 -6 6 -68 15 -137 21 -69 7 -143 14 -165 16 -51 7 -752 14 -825 9z"></path><path d="M7550 7109 c-167 -102 -897 -791 -935 -883 -20 -47 -19 -85 4 -121 40 -64 556 -601 1091 -1135 500 -499 642 -625 901 -793 712 -462 1532 -656 2219 -526 316 60 650 188 816 313 149 111 265 301 321 522 26 100 28 124 27 294 0 172 -2 191 -27 273 -48 155 -133 302 -232 402 -50 50 -90 74 -102 62 -3 -3 27 -72 65 -154 83 -175 107 -245 122 -354 36 -265 -108 -466 -387 -540 -102 -28 -324 -30 -463 -5 -209 37 -443 117 -658 225 -606 304 -1297 913 -1947 1716 -92 114 -611 646 -679 696 -47 35 -88 37 -136 8z"></path><path d="M9140 6254 c-279 -27 -405 -44 -418 -58 -18 -18 -23 -12 220 -273 185 -198 311 -317 353 -333 14 -5 68 -10 118 -10 114 -1 303 -15 467 -36 639 -81 1109 -345 1221 -687 42 -128 3 -206 -119 -241 -70 -19 -93 -39 -64 -55 59 -32 264 -29 396 5 253 65 388 255 347 490 -34 195 -163 406 -373 610 -51 50 -120 112 -152 138 -274 218 -746 375 -1296 431 -143 15 -612 27 -700 19z"></path><path d="M6338 5849 c-60 -10 -120 -26 -134 -35 -55 -37 -300 -354 -465 -603 -100 -151 -123 -201 -100 -215 5 -3 129 21 277 53 425 94 696 143 1074 196 201 28 225 37 197 77 -9 13 -132 141 -274 286 -258 263 -258 263 -363 261 -58 0 -153 -9 -212 -20z"></path><path d="M3385 5070 c-11 -5 -107 -43 -213 -85 -1042 -407 -2091 -1001 -2675 -1514 -364 -321 -548 -643 -485 -853 27 -92 142 -171 294 -203 221 -47 614 14 614 95 0 34 -57 43 -182 30 -237 -25 -394 21 -428 126 -18 52 -4 131 32 194 210 367 1585 1123 2674 1469 107 34 168 59 181 74 12 12 35 60 51 107 51 146 108 290 166 423 31 71 56 133 56 138 0 11 -58 11 -85 -1z"></path></g></g></svg>
