<svg xmlns="http://www.w3.org/2000/svg" width="763" height="963" viewBox="0 0 7630 9630"><g fill="rgb(213,213,208)"><g><path d="M3715 9259 c-441 -55 -644 -98 -923 -194 -381 -130 -688 -315 -926 -559 -116 -118 -248 -280 -328 -403 -85 -129 -90 -138 -86 -176 3 -30 6 -32 53 -38 95 -12 216 -74 320 -164 46 -40 39 -43 -65 -20 -125 27 -412 14 -452 -22 -17 -16 -88 -185 -131 -313 -60 -181 -75 -254 -84 -412 l-6 -108 39 0 c21 0 52 7 69 16 16 8 70 29 120 47 82 29 101 31 215 32 97 0 138 -4 185 -19 l60 -20 -95 -7 c-196 -15 -389 -92 -499 -198 -96 -93 -104 -127 -75 -333 25 -185 69 -345 144 -527 26 -65 27 -66 69 -69 34 -3 55 4 109 35 144 83 291 131 464 153 74 9 278 13 253 5 -5 -2 -48 -15 -95 -30 -85 -27 -286 -125 -342 -168 -16 -12 -84 -70 -151 -128 -151 -131 -152 -135 -81 -267 26 -48 57 -101 70 -118 13 -17 24 -35 24 -39 0 -4 17 -31 39 -59 21 -28 50 -69 64 -91 48 -73 91 -133 142 -194 64 -78 86 -80 163 -13 197 170 389 267 592 296 l45 6 -54 -30 c-78 -43 -112 -71 -249 -204 -153 -149 -232 -260 -232 -326 0 -44 4 -49 123 -177 130 -140 266 -269 410 -389 113 -95 134 -98 194 -20 98 128 304 259 488 311 71 20 155 42 190 49 26 6 24 3 -15 -20 -127 -73 -362 -304 -460 -451 -40 -59 -50 -83 -50 -115 0 -23 6 -46 14 -52 91 -74 284 -219 370 -280 147 -103 147 -103 259 18 167 182 346 290 537 326 64 12 179 15 211 5 19 -6 15 -10 -29 -25 -184 -65 -357 -201 -474 -373 -52 -76 -88 -159 -88 -201 0 -31 7 -39 83 -94 46 -33 118 -92 159 -131 90 -84 116 -89 188 -40 214 145 478 195 715 136 l90 -22 -110 -7 c-205 -12 -387 -95 -564 -255 -74 -67 -76 -81 -22 -190 21 -43 46 -102 56 -131 9 -29 24 -56 33 -61 10 -5 51 -11 92 -15 313 -29 556 -118 730 -269 49 -42 115 -117 90 -102 -8 5 -37 23 -65 41 -60 38 -197 107 -265 134 -99 39 -335 80 -462 80 l-117 0 -10 -37 c-6 -21 -11 -43 -11 -49 0 -6 -16 -43 -35 -81 -24 -49 -56 -90 -110 -142 -88 -85 -93 -107 -44 -178 28 -43 109 -196 109 -208 0 -3 -21 20 -46 52 -26 32 -76 88 -113 126 -76 78 -91 81 -208 45 -70 -22 -73 -24 -73 -54 0 -24 10 -41 44 -72 123 -113 359 -262 416 -262 23 0 33 -5 37 -19 3 -13 35 -28 122 -55 185 -58 296 -77 481 -83 147 -5 174 -3 249 17 246 63 391 210 463 470 26 94 37 415 19 567 -15 125 -75 307 -152 460 -97 191 -322 515 -543 782 -212 255 -330 392 -377 436 -30 28 -193 156 -364 285 -530 400 -710 544 -955 766 -756 684 -1103 1316 -1103 2009 0 288 59 539 188 800 183 370 473 645 898 850 450 218 950 306 1597 284 390 -14 529 -50 925 -237 370 -174 528 -276 721 -464 84 -82 106 -98 132 -98 29 0 32 3 32 31 0 41 -81 149 -210 279 -91 92 -279 250 -298 250 -5 0 -17 9 -27 20 -10 11 -22 20 -26 20 -5 0 -32 15 -61 34 -146 93 -492 242 -663 286 -16 5 -77 20 -135 34 -58 15 -121 31 -140 36 -41 11 -165 31 -380 61 -135 19 -206 22 -555 25 -220 1 -431 -2 -470 -7z m-1070 -552 c-16 -12 -64 -52 -105 -88 -220 -194 -406 -448 -520 -709 -18 -41 -36 -79 -41 -84 -4 -5 -33 14 -65 44 -32 28 -84 70 -116 93 -32 22 -58 44 -58 48 0 34 321 367 430 446 101 73 258 164 377 219 65 30 120 54 123 54 3 0 -8 -11 -25 -23z m-930 -1336 c140 -58 135 -52 128 -179 -3 -59 -6 -108 -7 -109 -1 -1 -40 12 -86 29 -81 30 -93 32 -267 36 -143 3 -183 7 -183 17 0 18 66 191 88 227 l17 30 105 -5 c95 -4 115 -8 205 -46z m35 -776 c30 -8 67 -15 83 -15 33 0 36 -6 76 -160 17 -63 39 -142 51 -174 11 -33 18 -61 16 -63 -2 -2 -70 -8 -152 -13 -81 -6 -174 -15 -206 -20 -52 -10 -223 -57 -270 -75 -13 -5 -21 6 -38 52 -27 71 -60 224 -60 280 0 38 4 44 49 77 142 104 316 147 451 111z m590 -1067 l120 -163 -77 -11 c-167 -24 -322 -82 -477 -179 -40 -25 -75 -45 -79 -45 -9 0 -177 254 -177 267 0 26 174 147 293 204 77 37 221 86 259 88 11 1 59 -56 138 -161z m652 -715 c79 -71 173 -153 209 -184 l64 -57 -45 -11 c-215 -55 -404 -138 -531 -233 -44 -32 -83 -58 -88 -58 -12 0 -289 267 -302 291 -7 14 2 30 48 79 67 73 196 178 275 225 58 35 165 73 204 74 14 1 74 -45 166 -126z m881 -712 l118 -89 -56 -12 c-181 -38 -331 -115 -509 -263 l-79 -66 -56 40 c-31 21 -66 47 -79 57 l-24 18 73 78 c76 81 196 180 289 237 62 39 168 87 190 88 8 0 68 -40 133 -88z m646 -581 c10 -5 55 -54 100 -110 l82 -100 -114 0 c-173 0 -307 -28 -508 -105 -43 -17 -47 -17 -72 0 -33 21 -29 30 52 110 114 112 249 187 371 204 30 5 59 9 63 10 5 0 16 -3 26 -9z m590 -787 c47 -33 211 -392 211 -461 0 -7 -26 9 -57 35 -191 155 -381 228 -745 288 -21 3 -38 9 -38 13 0 5 35 29 79 56 127 76 215 97 400 92 101 -3 128 -7 150 -23z m-502 -778 c93 -19 163 -45 263 -95 167 -83 269 -165 307 -245 16 -33 16 -36 -3 -51 -10 -8 -52 -32 -93 -51 -69 -34 -82 -37 -185 -41 -90 -3 -134 1 -231 21 -187 38 -183 35 -238 164 -26 60 -47 114 -47 119 0 6 23 48 50 94 28 46 50 87 50 92 0 12 50 10 127 -7z"></path><path d="M1635 2884 c-33 -20 -79 -52 -102 -71 -39 -31 -43 -39 -43 -78 0 -56 15 -65 109 -65 64 0 71 -2 71 -20 0 -17 7 -20 44 -20 37 0 45 4 50 23 12 44 7 57 -19 57 -31 0 -32 20 -5 92 11 29 20 68 20 86 0 30 -2 32 -32 32 -20 0 -57 -14 -93 -36z"></path></g></g><g fill="rgb(219,57,58)"><g><path d="M2160 3791 c0 -48 28 -169 55 -234 13 -34 23 -63 21 -65 -7 -6 -108 49 -157 84 -33 24 -58 34 -83 34 -35 0 -36 -1 -36 -36 0 -67 80 -142 345 -326 314 -217 371 -304 511 -767 30 -101 66 -205 79 -231 43 -84 109 -120 166 -90 16 9 19 22 19 79 0 73 -8 93 -118 291 -31 56 -53 120 -87 249 -70 265 -103 327 -320 596 -133 164 -243 311 -294 393 -29 46 -37 52 -67 52 -31 0 -34 -3 -34 -29z"></path><path d="M2325 1833 c-51 -13 -57 -52 -26 -175 28 -115 39 -132 86 -138 40 -5 40 -5 40 -50 0 -43 2 -46 40 -65 22 -10 68 -21 102 -23 l61 -4 11 38 c19 68 14 205 -10 267 -26 68 -72 125 -115 143 -32 13 -146 17 -189 7z"></path></g></g><g fill="rgb(54,161,74)"><g><path d="M4200 8713 c-243 -22 -543 -90 -697 -159 -17 -8 -35 -14 -39 -14 -19 0 -188 -85 -297 -148 -155 -92 -385 -288 -468 -400 -13 -18 -31 -42 -40 -52 -8 -10 -24 -35 -34 -54 -11 -20 -23 -36 -27 -36 -5 0 -8 -7 -8 -15 0 -8 -4 -15 -9 -15 -5 0 -12 -11 -15 -25 -4 -14 -10 -25 -15 -25 -5 0 -19 -26 -32 -57 -12 -32 -26 -60 -29 -63 -13 -10 -30 -49 -30 -69 0 -12 -4 -21 -10 -21 -5 0 -10 -11 -10 -25 0 -14 -4 -25 -9 -25 -12 0 -68 -197 -87 -310 -15 -89 -17 -141 -15 -533 1 -73 57 -347 71 -347 5 0 12 -17 15 -37 10 -59 36 -133 46 -133 5 0 9 -11 9 -24 0 -14 6 -31 14 -39 16 -16 96 -171 96 -187 0 -5 9 -19 20 -30 11 -11 20 -27 20 -35 0 -8 11 -25 25 -39 14 -14 25 -34 25 -46 0 -11 5 -20 10 -20 6 0 10 -7 10 -15 0 -8 5 -15 10 -15 6 0 10 -7 10 -15 0 -8 5 -15 10 -15 6 0 10 -7 10 -15 0 -8 7 -15 15 -15 8 0 15 -9 15 -20 0 -11 7 -20 15 -20 8 0 15 -9 15 -19 0 -10 7 -21 15 -25 8 -3 15 -12 15 -21 0 -8 7 -15 15 -15 8 0 17 -11 21 -25 3 -14 12 -25 19 -25 7 0 20 -16 30 -36 9 -19 24 -38 34 -42 19 -8 81 -75 81 -88 0 -13 52 -64 65 -64 7 0 37 -27 68 -60 50 -55 59 -60 96 -60 40 0 41 1 41 35 0 20 -8 43 -17 53 -10 10 -29 33 -43 51 -14 19 -35 45 -47 60 -13 14 -23 29 -23 33 0 4 -6 13 -13 20 -7 7 -40 54 -73 103 -76 117 -82 126 -94 150 -6 11 -19 34 -30 50 -37 57 -110 205 -149 302 -161 405 -185 757 -74 1093 28 85 111 268 130 288 7 7 13 20 13 28 0 8 4 14 8 14 4 0 16 14 26 32 45 74 195 230 298 308 64 48 237 142 333 181 135 54 306 82 515 82 202 0 312 -16 490 -71 63 -19 127 -37 143 -40 15 -2 27 -8 27 -13 0 -5 9 -9 21 -9 11 0 27 -7 35 -15 9 -8 24 -15 35 -15 25 0 139 -57 139 -69 0 -6 10 -13 22 -17 12 -3 28 -13 36 -20 7 -8 20 -14 28 -14 8 0 14 -4 14 -10 0 -5 7 -10 15 -10 8 0 15 -4 15 -10 0 -5 7 -10 15 -10 8 0 15 -4 15 -10 0 -5 7 -10 15 -10 9 0 18 -7 21 -15 4 -8 12 -15 20 -15 7 0 18 -8 23 -19 6 -10 21 -21 33 -24 13 -4 28 -16 33 -29 6 -12 20 -28 33 -34 34 -17 83 -65 93 -92 5 -13 18 -26 28 -29 10 -2 25 -17 32 -31 8 -15 20 -31 26 -35 7 -4 13 -15 13 -22 0 -8 5 -15 10 -15 6 0 10 -7 10 -15 0 -8 7 -15 15 -15 9 0 18 -12 21 -29 4 -17 12 -32 20 -35 8 -3 14 -12 14 -20 0 -21 32 -86 42 -86 4 0 8 -6 8 -14 0 -8 11 -50 24 -93 52 -168 55 -213 22 -343 -18 -70 -63 -167 -99 -214 -12 -16 -52 -58 -89 -94 -57 -55 -68 -71 -68 -99 0 -54 26 -55 195 -9 33 10 64 21 70 27 5 5 15 9 23 9 8 0 28 6 45 14 18 7 68 28 111 47 189 79 423 236 541 361 84 89 115 126 115 138 0 5 4 10 10 10 5 0 12 11 16 25 3 14 10 25 14 25 5 0 23 39 41 88 30 82 32 95 35 242 5 239 -16 333 -119 535 -61 120 -99 179 -144 223 -18 18 -33 37 -33 43 0 17 -146 159 -164 159 -9 0 -22 11 -28 25 -6 14 -19 25 -28 25 -10 0 -20 9 -23 20 -3 11 -12 20 -20 20 -8 0 -17 7 -21 15 -3 8 -12 15 -21 15 -8 0 -15 5 -15 10 0 6 -7 10 -15 10 -8 0 -15 5 -15 10 0 6 -7 10 -15 10 -8 0 -15 4 -15 9 0 5 -10 13 -22 17 -12 3 -28 13 -36 20 -7 8 -22 14 -33 14 -11 0 -22 6 -25 13 -5 15 -103 62 -146 71 -15 3 -33 13 -42 21 -8 8 -24 15 -35 15 -11 0 -26 7 -35 15 -8 8 -24 15 -35 15 -11 0 -26 6 -33 13 -7 7 -35 18 -63 25 -27 7 -52 17 -55 22 -14 23 -283 72 -513 94 -134 13 -559 19 -667 9z"></path><path d="M3088 863 l-38 -4 0 -53 c0 -43 4 -56 25 -74 14 -12 33 -22 44 -22 24 0 84 -21 92 -32 18 -27 329 -80 444 -76 l80 3 3 32 c3 34 -13 73 -47 111 -11 13 -21 27 -23 31 -2 4 -20 17 -41 29 -33 19 -53 22 -140 22 -56 0 -142 7 -192 16 -111 19 -159 23 -207 17z"></path></g></g><g fill="rgb(255,255,255)"><g><path d="M2764 8806 c-234 -84 -457 -198 -624 -319 -83 -60 -313 -290 -391 -390 -38 -49 -69 -92 -69 -95 0 -4 31 -28 68 -54 37 -26 105 -81 152 -122 47 -41 88 -72 92 -68 4 4 27 52 52 107 174 392 443 703 816 944 80 52 57 51 -96 -3z"></path><path d="M1342 7389 c-28 -59 -92 -239 -92 -259 0 -4 87 -10 193 -12 l192 -4 100 -37 c55 -20 107 -37 116 -37 14 0 17 21 23 141 6 123 5 144 -9 159 -9 10 -62 37 -118 61 -100 41 -105 42 -238 47 l-137 4 -30 -63z"></path><path d="M1555 6635 c-116 -22 -203 -59 -291 -126 l-52 -38 5 -68 c10 -144 67 -357 98 -369 7 -3 63 11 125 30 159 51 235 64 421 76 89 6 164 11 165 13 1 1 -11 43 -27 92 -16 50 -43 142 -60 205 -40 153 -43 160 -75 160 -14 0 -52 6 -83 14 -89 23 -151 26 -226 11z"></path><path d="M2150 5714 c-165 -43 -271 -90 -395 -174 -112 -76 -159 -122 -151 -147 9 -28 178 -284 200 -302 14 -12 27 -7 94 33 196 118 380 188 534 202 90 9 96 14 67 55 -100 143 -251 337 -264 343 -21 8 -18 8 -85 -10z"></path><path d="M2712 4949 c-72 -23 -140 -61 -224 -126 -134 -103 -238 -214 -238 -255 0 -33 320 -348 354 -348 6 0 52 31 101 68 143 107 334 191 563 247 39 9 72 20 72 24 0 3 -39 40 -87 81 -48 41 -152 132 -231 203 l-144 127 -52 -1 c-28 0 -79 -9 -114 -20z"></path><path d="M3650 4197 c-93 -39 -161 -81 -265 -162 -80 -62 -199 -181 -232 -231 -17 -27 -17 -27 17 -56 19 -16 68 -52 108 -79 l74 -49 74 63 c212 177 364 254 587 297 51 10 57 13 45 28 -30 36 -290 222 -311 222 -12 -1 -56 -15 -97 -33z"></path><path d="M2210 3927 c0 -19 8 -42 20 -55 11 -12 20 -28 20 -37 0 -9 7 -18 15 -21 8 -4 15 -15 15 -25 0 -10 5 -19 10 -19 6 0 10 -6 10 -13 0 -7 9 -19 20 -27 11 -8 20 -20 20 -27 0 -7 7 -13 15 -13 8 0 15 -9 15 -20 0 -13 7 -20 20 -20 15 0 20 -7 20 -25 0 -18 5 -25 20 -25 15 0 20 -7 20 -25 0 -18 5 -25 19 -25 14 0 21 -8 23 -27 2 -22 9 -29 31 -31 23 -3 27 -8 27 -33 0 -24 4 -29 24 -29 21 0 25 -6 28 -32 2 -25 8 -34 26 -36 14 -2 22 -10 22 -23 0 -38 30 -69 66 -69 37 0 54 21 54 64 0 14 4 26 10 26 15 0 50 33 50 47 0 8 13 13 35 13 28 0 35 4 35 20 0 16 -5 19 -22 16 -51 -9 -118 -50 -118 -72 0 -4 -9 -21 -20 -39 l-20 -33 -35 32 c-19 18 -35 36 -35 40 0 4 -12 20 -27 35 -26 26 -41 44 -106 124 -12 15 -32 37 -44 49 -13 12 -23 25 -23 30 0 7 -8 17 -55 69 -8 9 -15 21 -15 27 0 7 -4 12 -10 12 -5 0 -10 7 -10 15 0 8 -4 15 -10 15 -5 0 -10 7 -10 15 0 8 -4 15 -10 15 -5 0 -10 7 -10 15 0 8 -4 15 -9 15 -5 0 -11 8 -15 18 -7 21 -28 55 -39 63 -5 3 -8 9 -8 13 2 10 -23 46 -31 46 -5 0 -8 -15 -8 -33z"></path><path d="M5652 3788 c2 -27 8 -34 30 -36 22 -3 27 -9 30 -35 2 -24 8 -33 26 -35 16 -3 22 -10 22 -29 0 -16 7 -27 20 -30 11 -3 20 -14 20 -25 0 -11 9 -22 20 -25 11 -3 20 -14 20 -24 0 -11 7 -19 15 -19 8 0 15 -9 15 -20 0 -11 7 -20 15 -20 8 0 15 -9 15 -20 0 -11 7 -20 15 -20 8 0 15 -9 15 -20 0 -11 5 -20 10 -20 6 0 10 -7 10 -15 0 -8 5 -15 10 -15 6 0 10 -7 10 -15 0 -8 5 -15 10 -15 6 0 10 -7 10 -15 0 -8 5 -15 10 -15 6 0 10 -7 10 -15 0 -8 5 -15 10 -15 6 0 10 -7 10 -15 0 -8 5 -15 10 -15 6 0 10 -7 10 -15 0 -8 5 -15 10 -15 6 0 10 -9 10 -20 0 -11 7 -23 15 -26 8 -4 15 -12 15 -20 0 -8 7 -14 15 -14 8 0 15 -9 15 -19 0 -33 11 -51 31 -51 14 0 19 -7 19 -30 0 -31 45 -132 61 -138 5 -2 9 -9 9 -15 0 -24 36 -97 48 -97 7 0 12 -13 12 -29 0 -16 7 -36 15 -45 8 -8 15 -24 15 -35 0 -14 6 -21 20 -21 21 0 23 19 3 55 -6 11 -11 25 -12 30 -1 12 -12 36 -87 188 -78 158 -95 190 -111 205 -7 7 -13 20 -13 28 0 8 -4 14 -9 14 -5 0 -12 11 -15 25 -4 14 -11 25 -16 25 -6 0 -10 7 -10 15 0 8 -4 15 -10 15 -5 0 -10 7 -10 15 0 8 -4 15 -10 15 -5 0 -10 7 -10 15 0 8 -4 15 -10 15 -5 0 -10 7 -10 15 0 8 -4 15 -10 15 -5 0 -10 7 -10 15 0 8 -4 15 -10 15 -5 0 -10 7 -10 15 0 8 -4 15 -10 15 -5 0 -10 6 -10 14 0 8 -7 16 -15 20 -8 3 -15 12 -15 20 0 7 -7 16 -15 20 -8 3 -15 12 -15 20 0 7 -7 16 -15 20 -8 3 -15 12 -15 20 0 7 -7 16 -15 20 -8 3 -15 12 -15 20 0 9 -9 20 -20 26 -11 6 -20 17 -20 24 0 8 -11 21 -25 30 -14 9 -25 23 -25 30 0 8 -11 21 -24 30 -14 8 -27 24 -31 35 -3 10 -17 27 -31 36 l-25 16 3 -33z"></path><path d="M4400 3549 c-146 -21 -306 -121 -430 -267 -51 -61 -49 -71 22 -115 l44 -27 65 29 c179 81 352 116 547 108 l132 -4 -27 36 c-69 92 -188 233 -204 241 -20 11 -70 11 -149 -1z"></path><path d="M1838 2982 c-10 -2 -18 -12 -18 -23 0 -10 -6 -19 -14 -19 -17 0 -46 -69 -46 -110 0 -28 3 -30 35 -30 28 0 35 4 35 20 0 15 7 20 25 20 16 0 25 6 25 15 0 8 9 15 20 15 11 0 20 5 20 10 0 6 6 10 14 10 8 0 16 5 18 12 2 6 9 9 15 7 11 -4 -158 -149 -172 -149 -4 0 -22 -12 -41 -26 -37 -28 -50 -73 -16 -55 14 8 19 6 19 -5 0 -7 -6 -14 -14 -14 -7 0 -13 -7 -13 -17 0 -14 12 -15 117 -10 65 4 119 10 121 15 1 5 16 6 33 4 37 -5 49 8 49 58 0 36 20 102 45 151 8 15 15 42 15 59 0 27 -3 30 -31 30 -17 0 -43 -9 -59 -20 l-27 -19 5 24 c3 20 0 25 -15 25 -11 0 -28 -9 -38 -20 -10 -11 -22 -17 -26 -14 -5 3 -9 0 -9 -5 0 -6 -6 -11 -14 -11 -8 0 -16 -7 -20 -15 -3 -8 -11 -15 -18 -15 -8 0 -20 -9 -28 -20 -8 -11 -20 -20 -26 -20 -14 0 25 79 55 111 31 34 27 41 -21 31z"></path><path d="M4758 2780 c-93 -17 -155 -40 -236 -91 -46 -28 -86 -57 -88 -64 -10 -26 15 -54 54 -60 400 -65 604 -153 806 -345 l79 -75 -7 62 c-14 127 -69 287 -154 447 -67 128 -69 129 -254 132 -84 2 -174 -1 -200 -6z"></path><path d="M4439 1968 c-12 -23 -42 -74 -66 -112 l-45 -69 58 -135 c66 -154 60 -149 217 -183 219 -48 391 -43 512 15 95 45 118 69 110 109 -22 105 -121 195 -330 299 -130 65 -229 94 -382 113 l-52 7 -22 -44z"></path><path d="M6462 1400 c-6 -22 -12 -51 -12 -65 0 -14 -4 -25 -10 -25 -5 0 -10 -11 -10 -24 0 -13 -4 -26 -8 -28 -11 -4 -72 -118 -72 -135 0 -7 -4 -13 -10 -13 -5 0 -10 -7 -10 -15 0 -8 -4 -15 -10 -15 -5 0 -10 -9 -10 -20 0 -11 -7 -20 -15 -20 -10 0 -15 -10 -15 -30 0 -24 -4 -30 -22 -30 -29 0 -108 -79 -108 -108 0 -18 -6 -22 -30 -22 -20 0 -30 -5 -30 -15 0 -8 -9 -15 -20 -15 -11 0 -20 -4 -20 -10 0 -5 -7 -10 -15 -10 -8 0 -15 -4 -15 -9 0 -5 -11 -12 -25 -15 -14 -4 -25 -13 -25 -21 0 -8 -9 -15 -20 -15 -34 0 -90 -32 -90 -52 0 -14 6 -17 23 -14 31 6 77 28 77 37 0 4 16 13 35 19 19 6 35 16 35 21 0 5 7 9 15 9 8 0 15 5 15 10 0 6 7 10 15 10 8 0 15 5 15 10 0 6 8 14 18 17 9 4 25 17 35 30 10 13 24 23 31 23 10 0 40 30 124 126 11 12 22 29 25 38 4 9 11 16 17 16 5 0 10 7 10 15 0 8 3 15 8 15 8 0 12 8 59 101 29 58 46 100 43 107 0 1 6 15 14 31 8 15 18 40 21 55 3 14 7 37 10 51 4 19 1 25 -12 25 -12 0 -22 -13 -31 -40z"></path></g></g><g fill="rgb(41,123,62)"><g><path d="M4470 9019 c-480 -19 -863 -108 -1227 -284 -425 -205 -715 -480 -898 -850 -133 -269 -188 -510 -189 -825 -2 -854 459 -1565 1589 -2451 88 -69 300 -230 470 -359 346 -261 389 -299 517 -452 49 -59 92 -107 96 -105 4 1 31 -18 61 -43 48 -40 51 -45 31 -50 -21 -5 -20 -7 19 -50 40 -45 40 -45 41 -17 0 23 3 26 18 18 28 -16 414 -408 496 -505 225 -264 382 -585 453 -926 21 -101 26 -154 27 -275 1 -185 -20 -278 -99 -440 -86 -177 -193 -288 -355 -370 -396 -199 -926 -112 -1583 261 -165 94 -193 101 -255 59 -20 -14 -45 -25 -56 -25 -15 0 -9 10 28 46 70 66 86 109 86 229 0 128 -13 175 -106 397 -103 248 -126 324 -190 633 -83 405 -126 521 -224 609 -68 61 -139 89 -231 90 -69 1 -80 -2 -104 -24 -50 -46 -68 -103 -73 -236 -3 -93 -1 -133 12 -177 16 -55 18 -57 51 -57 33 0 34 1 45 58 22 112 43 171 70 204 34 40 49 35 95 -33 93 -136 116 -336 129 -1089 6 -342 12 -332 -94 -136 -100 184 -146 226 -333 298 -149 58 -223 100 -333 189 -264 214 -309 248 -390 294 l-87 49 -76 -10 c-42 -6 -105 -9 -140 -6 l-64 4 43 19 c39 18 180 123 180 134 0 3 -16 5 -36 5 -27 0 -37 -5 -41 -20 -3 -11 -14 -20 -24 -20 -10 0 -22 -6 -26 -13 -10 -16 -74 -49 -81 -42 -3 3 0 5 6 5 7 0 12 17 12 45 0 32 -4 45 -14 45 -15 0 -26 -30 -26 -72 0 -17 -8 -31 -19 -38 -29 -15 -114 -12 -137 4 -16 13 -17 18 -6 35 11 19 10 21 -14 21 -31 0 -99 -46 -144 -96 -18 -21 -49 -72 -69 -113 -32 -67 -36 -87 -39 -168 l-4 -92 59 -62 c32 -34 105 -99 163 -144 131 -103 243 -218 218 -223 -15 -3 -18 -14 -18 -61 0 -74 24 -112 165 -262 60 -63 138 -149 173 -192 57 -68 69 -77 99 -77 24 0 33 4 33 17 0 31 17 0 55 -102 70 -184 108 -245 175 -280 27 -14 53 -16 139 -13 58 3 114 8 124 12 14 7 17 3 17 -25 0 -32 6 -38 92 -93 192 -124 366 -193 600 -240 218 -44 313 -51 663 -51 354 1 400 5 643 62 l113 27 -3 35 -3 36 -143 37 c-172 45 -287 91 -388 154 -41 25 -74 48 -72 49 2 2 49 -12 104 -30 117 -39 300 -86 429 -111 117 -22 583 -31 710 -15 124 17 299 63 395 105 314 136 506 384 566 729 24 138 15 521 -15 671 -80 391 -301 804 -660 1231 -286 340 -610 656 -1136 1109 -363 313 -566 499 -765 702 -451 459 -694 856 -796 1299 -23 97 -26 356 -6 450 43 199 141 392 271 537 212 235 593 374 929 338 372 -39 706 -189 950 -424 158 -153 236 -275 275 -433 19 -78 20 -89 6 -141 l-14 -57 -44 -3 c-37 -3 -55 -12 -105 -56 -81 -70 -108 -88 -204 -136 -148 -73 -343 -127 -622 -171 -107 -17 -197 -22 -430 -26 -260 -4 -314 -2 -460 16 -91 12 -217 35 -279 51 -63 17 -131 30 -152 30 l-39 0 0 -52 c0 -98 123 -400 180 -440 52 -37 314 -90 559 -113 179 -17 629 -20 831 -5 877 66 1627 344 1995 742 81 88 183 240 221 328 107 255 107 599 -1 887 -31 82 -141 295 -166 322 -10 11 -19 25 -19 31 0 5 -4 10 -10 10 -5 0 -10 6 -10 14 0 8 -8 21 -18 28 -10 7 -21 21 -25 31 -3 9 -13 17 -22 17 -8 0 -15 8 -15 18 0 27 -42 62 -74 62 l-29 0 24 -29 c58 -71 143 -177 153 -191 6 -8 -37 30 -94 86 -190 181 -320 269 -620 416 -298 145 -490 221 -642 252 -151 31 -530 47 -818 35z m268 -343 c7 -4 33 -5 57 -2 28 5 46 3 50 -4 5 -8 22 -10 51 -5 31 4 44 3 44 -6 0 -8 11 -10 35 -6 19 3 37 1 41 -5 4 -5 19 -7 35 -4 18 3 29 1 29 -5 0 -7 11 -9 30 -5 19 3 30 1 30 -5 0 -7 11 -9 25 -7 14 3 25 1 25 -4 0 -6 11 -7 25 -4 16 4 25 2 25 -5 0 -6 9 -9 20 -6 11 3 20 1 20 -3 0 -5 14 -8 31 -8 17 1 34 -4 38 -10 3 -6 29 -17 56 -24 28 -7 56 -18 63 -25 7 -7 22 -13 33 -13 11 0 27 -7 35 -15 9 -8 24 -15 35 -15 11 0 27 -7 35 -15 9 -8 27 -18 42 -21 42 -8 142 -56 136 -65 -2 -5 14 -13 36 -19 22 -6 38 -15 35 -19 -2 -5 9 -11 26 -15 17 -3 28 -10 24 -16 -3 -5 3 -10 15 -10 12 0 18 -4 15 -10 -3 -5 3 -10 15 -10 12 0 19 -4 15 -9 -3 -5 4 -11 15 -13 12 -2 20 -7 20 -13 -1 -5 9 -12 22 -15 13 -3 23 -12 23 -20 0 -8 10 -16 21 -18 12 -2 26 -14 32 -28 7 -13 19 -24 28 -24 20 0 167 -147 160 -159 -3 -4 8 -18 25 -30 16 -12 27 -26 24 -32 -4 -5 0 -9 7 -9 8 0 22 -13 31 -30 10 -16 15 -30 10 -30 -4 0 3 -7 15 -16 13 -9 21 -21 19 -27 -2 -6 5 -19 15 -29 10 -10 16 -23 13 -28 -4 -6 -1 -10 5 -10 6 0 8 -4 5 -10 -3 -5 -1 -10 5 -10 6 0 8 -4 5 -10 -3 -5 -1 -10 5 -10 6 0 8 -4 5 -10 -3 -5 -1 -10 5 -10 6 0 8 -4 5 -10 -3 -5 -1 -10 6 -10 7 0 10 -3 6 -6 -3 -4 1 -13 9 -21 8 -9 13 -22 10 -29 -3 -8 -1 -14 5 -14 6 0 7 -4 4 -10 -3 -5 -1 -10 5 -10 7 0 10 -7 6 -15 -3 -8 -1 -15 5 -15 6 0 9 -7 5 -15 -3 -8 -1 -15 5 -15 6 0 9 -7 5 -15 -3 -8 -1 -15 5 -15 6 0 9 -8 8 -17 -1 -10 1 -26 6 -35 4 -10 5 -25 2 -33 -4 -8 -3 -16 1 -19 6 -4 8 -261 2 -276 -1 -3 -2 -9 -1 -14 1 -4 -4 -14 -10 -22 -6 -8 -8 -14 -4 -14 4 0 2 -7 -5 -15 -7 -8 -9 -15 -5 -15 4 0 2 -7 -5 -15 -7 -8 -9 -15 -6 -15 4 0 1 -10 -6 -22 -7 -13 -11 -26 -10 -30 1 -5 -3 -8 -9 -8 -5 0 -7 -4 -4 -10 3 -5 2 -10 -3 -10 -6 0 -13 -11 -16 -25 -4 -14 -11 -25 -16 -25 -6 0 -10 -5 -10 -10 0 -12 -31 -49 -115 -138 -118 -125 -352 -282 -541 -361 -43 -19 -93 -40 -111 -47 -17 -8 -37 -14 -45 -14 -8 0 -19 -5 -26 -12 -7 -7 -12 -8 -12 -4 0 5 -7 3 -15 -4 -8 -7 -15 -9 -15 -5 0 4 -7 2 -15 -5 -8 -7 -15 -10 -15 -6 0 3 -16 0 -35 -8 -19 -8 -35 -13 -35 -10 0 3 -8 0 -18 -5 -10 -5 -23 -6 -30 -2 -8 5 10 29 55 73 80 78 123 128 123 146 0 6 5 12 11 12 5 0 7 5 4 10 -3 6 -1 10 5 10 6 0 8 5 5 10 -3 6 -1 10 4 10 6 0 10 3 9 8 -1 4 3 17 10 30 7 12 10 22 6 22 -3 0 -1 6 5 14 6 8 11 18 10 22 -1 5 0 11 1 14 8 15 12 76 12 165 1 136 -1 163 -11 170 -5 3 -7 14 -4 25 3 11 0 20 -6 20 -5 0 -8 7 -5 15 4 8 1 15 -5 15 -6 0 -8 7 -5 15 4 8 1 15 -6 15 -6 0 -8 5 -5 10 3 6 2 10 -4 10 -6 0 -8 6 -5 14 3 7 -2 20 -10 29 -8 8 -12 17 -9 21 4 3 1 6 -6 6 -7 0 -9 5 -6 10 3 6 1 10 -5 10 -6 0 -8 5 -5 10 3 6 2 10 -4 10 -6 0 -8 6 -5 14 3 8 -4 20 -15 28 -12 8 -18 17 -15 20 8 9 -19 48 -33 48 -7 0 -10 7 -7 15 4 10 0 15 -11 15 -9 0 -14 4 -10 9 3 5 -5 17 -17 26 -13 8 -22 19 -22 23 2 11 -19 36 -40 47 -10 6 -18 14 -16 19 3 11 -81 96 -96 96 -15 0 -46 35 -37 43 3 4 -11 14 -31 22 -20 9 -34 20 -31 25 3 5 -6 12 -20 16 -13 3 -22 10 -20 15 3 5 -6 11 -20 15 -13 3 -22 10 -19 15 3 5 -4 9 -16 9 -12 0 -18 5 -15 10 3 6 -3 10 -15 10 -12 0 -19 4 -16 9 3 5 -8 11 -25 15 -17 3 -28 10 -25 15 3 5 -8 11 -25 15 -17 3 -28 10 -25 14 6 9 -113 67 -156 77 -16 3 -28 10 -28 15 0 6 -11 10 -25 10 -14 0 -25 5 -25 10 0 6 -8 10 -18 10 -21 0 -144 40 -152 49 -3 3 -18 7 -35 8 -16 1 -31 7 -33 12 -2 5 -11 7 -21 4 -10 -3 -22 0 -25 5 -3 6 -15 8 -26 5 -11 -3 -20 0 -20 6 0 7 -9 9 -24 5 -13 -3 -27 -1 -31 5 -3 6 -17 8 -31 5 -13 -3 -30 -2 -37 4 -12 10 -435 9 -492 -1 -16 -4 -41 -8 -55 -11 -26 -4 -78 -15 -95 -20 -134 -33 -363 -143 -473 -226 -103 -78 -253 -234 -298 -308 -10 -18 -22 -32 -26 -32 -4 0 -8 -6 -8 -14 0 -8 -6 -21 -14 -28 -7 -8 -17 -24 -20 -36 -4 -12 -12 -22 -17 -22 -6 0 -7 -4 -4 -10 3 -5 1 -10 -5 -10 -6 0 -8 -4 -5 -10 3 -5 1 -10 -5 -10 -6 0 -8 -4 -5 -10 3 -5 1 -10 -4 -10 -6 0 -10 -3 -9 -7 2 -13 -14 -63 -21 -63 -4 0 -8 -10 -8 -22 -1 -13 -7 -24 -12 -26 -5 -2 -7 -10 -4 -18 3 -8 0 -14 -7 -14 -6 0 -9 -4 -5 -9 3 -5 1 -12 -5 -16 -6 -4 -8 -11 -4 -16 3 -5 0 -16 -6 -24 -7 -8 -9 -15 -5 -15 4 0 2 -6 -4 -13 -6 -8 -8 -17 -4 -20 3 -4 0 -13 -6 -21 -7 -8 -10 -20 -6 -26 3 -5 3 -15 -1 -22 -14 -23 -23 -124 -26 -315 -2 -94 0 -163 6 -163 5 0 6 -16 3 -35 -4 -22 -2 -35 5 -35 6 0 8 -12 5 -30 -4 -19 -2 -30 4 -30 6 0 9 -9 6 -20 -3 -11 -1 -20 5 -20 6 0 7 -11 4 -25 -4 -16 -2 -25 5 -25 6 0 9 -9 6 -20 -3 -11 -1 -20 5 -20 6 0 8 -7 4 -15 -3 -8 0 -15 5 -15 6 0 9 -9 6 -20 -3 -11 -1 -20 5 -20 6 0 8 -7 4 -15 -3 -8 -1 -15 5 -15 6 0 9 -7 5 -15 -3 -8 -1 -15 5 -15 6 0 9 -7 5 -15 -3 -8 -1 -15 5 -15 6 0 9 -6 7 -12 -3 -7 2 -19 9 -27 8 -7 12 -18 10 -25 -2 -6 3 -17 10 -25 8 -7 12 -18 10 -25 -2 -6 3 -17 10 -25 8 -7 12 -20 9 -27 -3 -8 -1 -14 5 -14 6 0 7 -4 4 -10 -3 -5 -1 -10 5 -10 6 0 8 -4 5 -10 -3 -5 -1 -10 5 -10 6 0 8 -4 5 -10 -3 -5 -2 -10 4 -10 10 0 27 -38 23 -52 -1 -5 3 -8 9 -8 5 0 7 -4 4 -10 -3 -5 -1 -10 5 -10 6 0 8 -4 5 -10 -3 -5 -1 -10 6 -10 7 0 9 -3 6 -7 -4 -3 2 -13 14 -21 11 -8 18 -20 16 -26 -3 -7 4 -18 15 -25 11 -7 17 -18 15 -25 -3 -7 4 -18 15 -25 11 -7 17 -18 14 -26 -2 -7 2 -16 10 -19 9 -3 13 -10 10 -15 -3 -5 1 -12 10 -15 8 -3 13 -10 10 -15 -3 -5 1 -12 10 -15 8 -3 13 -10 10 -15 -3 -5 1 -12 10 -15 8 -3 13 -10 10 -15 -3 -5 1 -12 10 -15 8 -3 13 -10 10 -15 -3 -5 1 -12 10 -15 8 -3 12 -10 9 -16 -3 -5 1 -10 9 -10 14 0 18 -6 15 -27 0 -3 6 -10 15 -15 9 -5 14 -13 11 -19 -4 -5 0 -9 8 -9 14 0 32 -27 29 -42 -1 -5 4 -8 12 -8 13 0 31 -27 28 -42 -1 -4 7 -10 18 -13 11 -4 20 -11 20 -16 0 -22 -26 -5 -77 51 -31 33 -61 60 -68 60 -6 0 -24 14 -40 30 -16 16 -25 30 -21 30 13 0 -65 84 -89 95 -11 6 -20 15 -20 20 -1 18 -30 55 -42 55 -7 0 -12 3 -11 8 3 15 -15 42 -29 42 -8 0 -12 4 -8 9 3 5 -3 16 -13 23 -19 13 -22 18 -22 38 0 6 -7 10 -15 10 -8 0 -14 3 -14 8 3 20 -2 32 -16 32 -9 0 -12 6 -9 15 4 10 0 15 -11 15 -9 0 -13 5 -10 10 3 6 -1 13 -9 16 -9 3 -13 10 -10 15 3 5 -1 12 -10 15 -8 3 -13 11 -10 18 3 7 -8 27 -23 43 -16 17 -27 35 -26 40 2 5 -7 21 -19 34 -13 14 -23 29 -23 34 -1 16 -87 180 -96 183 -5 2 -7 8 -3 13 3 5 1 9 -5 9 -6 0 -8 6 -5 14 3 7 -2 20 -10 29 -8 8 -12 17 -9 21 4 3 1 6 -5 6 -6 0 -9 7 -6 15 4 8 1 15 -5 15 -6 0 -8 7 -5 15 4 8 1 15 -6 15 -6 0 -9 4 -6 8 7 11 -15 82 -25 82 -5 0 -6 7 -3 15 4 8 2 15 -4 15 -6 0 -8 9 -5 20 3 11 0 20 -6 20 -7 0 -9 9 -5 25 3 14 2 25 -4 25 -6 0 -8 9 -5 20 3 11 0 20 -6 20 -6 0 -8 11 -4 30 3 19 1 30 -6 30 -7 0 -9 9 -5 24 3 14 3 30 -1 37 -13 20 -20 348 -9 444 3 28 6 61 8 75 1 14 6 33 11 43 4 10 5 21 1 24 -3 3 -1 12 5 19 6 8 9 20 6 29 -4 8 -2 17 4 21 6 3 8 12 5 20 -3 8 -1 14 5 14 6 0 9 7 6 15 -4 8 -2 17 4 21 6 3 8 12 5 20 -3 8 -1 14 5 14 6 0 9 7 6 15 -4 8 -2 17 4 20 5 4 7 11 4 16 -4 5 -1 9 5 9 7 0 10 6 7 14 -3 8 -2 16 3 18 4 2 10 12 12 23 1 11 7 23 11 26 4 3 9 16 10 27 1 12 5 22 10 22 4 0 5 5 2 10 -3 6 -1 10 5 10 6 0 8 5 5 10 -3 6 -2 10 3 10 5 0 15 18 22 40 7 22 17 40 22 40 5 0 6 5 3 10 -3 6 -1 10 5 10 6 0 8 5 5 10 -3 6 -2 10 4 10 6 0 13 11 17 25 3 14 10 25 15 25 5 0 9 7 9 15 0 8 3 15 8 15 4 0 16 16 27 36 10 19 26 44 34 54 9 10 27 34 40 52 83 112 313 308 468 400 109 63 278 148 297 148 4 0 22 6 39 14 42 18 152 56 177 61 11 2 24 6 28 9 8 5 39 12 87 21 11 2 31 7 45 10 43 11 103 22 165 31 22 3 54 7 70 10 17 2 56 6 88 8 32 2 60 6 63 8 7 8 469 3 482 -6z m-2254 -6880 c18 -7 47 -31 64 -52 17 -21 35 -35 38 -31 10 9 47 -48 68 -103 18 -49 22 -85 18 -197 l-2 -71 -67 17 c-88 23 -125 43 -185 99 -67 63 -102 135 -132 279 l-13 62 51 4 c108 7 128 7 160 -7z m700 -973 c8 3 18 1 22 -4 3 -6 17 -8 30 -5 15 4 24 2 24 -5 0 -7 12 -9 34 -5 19 4 37 2 40 -3 3 -5 51 -7 112 -3 97 5 109 3 147 -18 45 -25 59 -39 51 -52 -3 -4 1 -8 8 -8 16 0 51 -54 41 -64 -3 -3 -1 -6 6 -6 7 0 10 -4 7 -9 -7 -11 -126 -9 -143 2 -7 4 -23 5 -36 1 -14 -3 -28 -1 -32 5 -3 6 -17 8 -31 5 -15 -4 -24 -2 -24 5 0 7 -9 9 -25 5 -16 -4 -25 -2 -25 5 0 7 -9 9 -25 5 -16 -4 -25 -2 -25 6 0 6 -5 8 -10 5 -11 -7 -81 13 -90 25 -7 9 -69 30 -91 30 -27 0 -69 40 -69 66 0 19 6 23 38 26 20 2 40 -1 43 -6 4 -5 14 -6 23 -3z"></path><path d="M1365 8393 c-52 -12 -176 -59 -230 -86 -171 -85 -319 -235 -388 -392 -96 -220 -86 -477 29 -706 39 -79 53 -91 95 -87 l33 3 27 130 c36 175 96 351 179 522 73 152 132 248 266 434 69 95 84 123 84 153 0 35 -1 36 -37 35 -21 -1 -47 -3 -58 -6z"></path><path d="M6583 6453 c-114 -91 -114 -100 7 -251 219 -275 353 -501 445 -749 26 -72 27 -73 62 -73 l36 0 -7 118 c-9 135 -33 291 -66 412 -28 103 -164 377 -253 510 -61 92 -64 95 -102 97 -36 2 -49 -4 -122 -64z"></path></g></g><g fill="rgb(33,32,31)"><g><path d="M3795 9562 c-209 -20 -435 -52 -518 -73 -23 -6 -64 -14 -92 -19 -48 -9 -133 -32 -239 -66 -27 -9 -73 -22 -103 -30 -30 -8 -73 -23 -96 -33 -23 -10 -57 -22 -74 -26 -18 -3 -33 -11 -33 -16 0 -5 -9 -9 -19 -9 -11 0 -23 -4 -26 -10 -3 -5 -13 -10 -22 -10 -19 0 -43 -11 -263 -118 -140 -68 -160 -75 -210 -73 -174 6 -539 -61 -687 -125 -17 -8 -37 -14 -44 -14 -15 0 -71 -25 -178 -78 -106 -53 -126 -64 -129 -74 -2 -4 -9 -8 -15 -8 -33 0 -242 -178 -322 -275 -110 -132 -209 -346 -234 -505 -13 -80 -14 -384 -2 -442 25 -116 54 -227 68 -258 8 -19 19 -46 25 -60 27 -69 90 -180 149 -263 l66 -92 8 -120 c5 -66 10 -140 11 -165 13 -193 26 -287 64 -440 6 -25 16 -67 22 -95 6 -27 13 -54 16 -59 2 -4 27 -74 54 -155 27 -80 57 -162 65 -181 9 -19 24 -55 35 -80 190 -434 451 -809 842 -1208 125 -128 345 -334 460 -432 43 -36 103 -88 134 -116 31 -28 140 -118 242 -200 102 -82 188 -153 190 -159 3 -5 -17 -13 -45 -18 -57 -9 -108 -44 -131 -89 -41 -80 -36 -82 -179 90 -136 162 -285 356 -285 368 0 4 -9 17 -19 28 -23 25 -77 130 -86 168 -4 15 -13 32 -20 38 -14 11 -21 -4 -44 -95 -12 -48 -16 -274 -6 -328 l8 -39 -32 16 c-17 9 -82 55 -144 102 l-112 85 -3 -40 c-2 -22 2 -49 7 -60 6 -11 11 -31 11 -45 0 -14 4 -28 10 -31 5 -3 10 -15 10 -25 0 -28 69 -143 123 -205 27 -30 93 -87 147 -127 54 -40 144 -106 199 -147 146 -107 197 -180 251 -357 51 -166 56 -202 36 -275 -26 -93 -43 -121 -64 -110 -9 5 -75 55 -147 110 -113 88 -226 157 -289 176 -21 6 -20 27 7 155 17 79 33 111 87 172 23 27 38 48 33 48 -55 -2 -162 -27 -218 -53 -79 -36 -164 -87 -184 -111 -7 -9 -18 -16 -23 -16 -5 0 -16 -7 -25 -15 -8 -9 -17 -14 -20 -11 -6 5 34 83 58 115 25 31 17 41 -28 31 -21 -5 -63 -12 -93 -15 -30 -3 -59 -10 -65 -14 -5 -5 -30 -15 -55 -22 -90 -26 -311 -199 -373 -292 -50 -74 -77 -162 -77 -245 0 -92 26 -139 121 -221 180 -154 209 -180 239 -214 l31 -36 -12 -80 c-11 -70 -10 -87 5 -132 23 -72 75 -138 201 -255 177 -166 317 -335 380 -459 72 -144 160 -213 304 -236 80 -12 92 -18 199 -95 39 -28 119 -75 179 -104 104 -51 124 -60 168 -75 11 -4 56 -20 100 -36 247 -90 461 -119 895 -121 382 -3 491 15 948 152 198 59 201 59 383 70 181 10 280 24 389 56 88 25 258 94 271 110 6 8 17 14 25 14 7 0 19 6 26 12 7 7 25 19 39 26 49 25 187 151 244 221 62 77 139 206 156 261 6 19 14 44 19 55 16 35 39 123 33 128 -2 3 0 14 5 24 27 50 37 541 14 679 -6 38 -16 100 -22 137 -36 228 -213 666 -362 895 -10 15 -25 41 -34 57 -9 17 -39 60 -65 97 -27 37 -49 71 -49 74 0 12 -131 185 -231 304 -272 327 -576 621 -1074 1039 -580 486 -792 688 -1044 991 -38 46 -68 86 -66 89 3 2 44 -2 93 -8 48 -7 108 -14 132 -17 25 -2 63 -6 85 -8 41 -4 254 -16 360 -20 60 -3 358 9 490 19 102 8 401 53 536 80 353 72 639 166 945 310 l116 55 48 -41 c62 -52 222 -225 283 -305 87 -115 192 -298 262 -459 9 -22 21 -49 26 -60 19 -43 89 -286 113 -395 44 -195 37 -185 73 -110 51 109 61 134 74 185 6 28 15 59 20 70 4 11 10 34 13 50 3 17 11 62 19 102 9 49 13 143 13 310 -1 222 -3 247 -29 363 -56 247 -157 506 -281 714 -43 72 -46 82 -35 108 6 15 15 28 18 28 7 0 28 43 60 120 6 14 15 32 20 40 20 32 40 89 64 175 44 165 59 264 64 450 4 153 2 198 -16 302 -22 133 -62 247 -116 337 -19 32 -35 62 -35 66 0 4 -13 26 -30 48 -16 23 -30 45 -30 49 0 5 -25 40 -55 78 -30 39 -72 93 -94 120 -105 137 -329 335 -513 456 -431 281 -1021 476 -1608 529 -181 16 -709 18 -865 2z m955 -351 c222 -37 294 -50 335 -60 22 -6 87 -22 145 -37 58 -14 119 -29 135 -34 34 -8 195 -65 299 -105 80 -30 244 -108 333 -159 260 -146 519 -384 665 -611 54 -84 132 -236 164 -323 103 -272 103 -575 2 -817 -40 -93 -140 -243 -223 -333 -368 -398 -1118 -676 -1995 -742 -199 -15 -593 -12 -771 5 -247 24 -508 77 -559 113 -62 45 -217 432 -173 432 6 0 61 -13 124 -30 62 -16 188 -39 279 -51 147 -19 200 -20 490 -16 266 4 350 9 460 26 280 44 474 98 622 171 97 49 123 66 206 138 35 30 65 52 67 50 3 -3 -4 -31 -15 -62 l-20 -58 22 14 c34 23 95 117 107 165 24 94 1 234 -59 354 -101 204 -351 430 -610 553 -634 300 -1317 176 -1642 -297 -80 -116 -148 -278 -180 -422 -21 -96 -17 -411 6 -510 60 -260 157 -477 324 -729 235 -356 551 -681 1237 -1272 526 -453 850 -769 1136 -1109 359 -427 581 -841 660 -1231 30 -150 38 -477 15 -611 -60 -345 -252 -593 -566 -729 -96 -42 -271 -88 -396 -105 -123 -16 -531 -7 -649 15 -247 47 -543 139 -703 220 -29 15 -52 22 -52 17 0 -4 35 -42 78 -82 141 -135 290 -211 539 -275 76 -20 141 -39 146 -43 8 -8 -169 -52 -318 -78 -127 -22 -642 -25 -805 -5 -259 32 -477 91 -642 172 -77 38 -253 144 -278 167 -2 2 12 19 32 36 39 34 98 104 98 118 0 4 -26 -8 -57 -27 -86 -51 -160 -76 -244 -82 -138 -8 -186 39 -274 268 -55 145 -70 171 -153 270 -130 156 -150 162 -66 19 68 -114 97 -170 91 -175 -2 -2 -33 31 -69 73 -35 43 -113 129 -173 192 -120 127 -165 191 -165 233 0 35 10 35 48 3 17 -14 33 -25 36 -25 3 0 -8 28 -25 62 -39 78 -123 166 -259 273 -58 45 -131 110 -164 144 l-58 62 4 64 c3 49 13 82 46 148 44 89 42 87 219 237 77 65 159 117 169 107 2 -2 -2 -19 -10 -38 -7 -19 -16 -54 -20 -79 -10 -71 -16 -75 -92 -73 -73 1 -76 -12 -5 -28 49 -11 120 3 171 33 19 12 83 59 141 104 112 88 179 131 179 117 0 -4 -14 -35 -31 -67 -22 -41 -33 -79 -37 -121 l-4 -62 -107 -15 -106 -15 74 -2 c69 -1 80 -4 158 -48 79 -44 123 -78 387 -292 110 -89 184 -131 333 -189 120 -46 190 -89 237 -143 18 -21 64 -96 102 -166 114 -210 193 -274 344 -280 l85 -3 -52 19 c-81 30 -172 81 -197 112 -21 24 -23 40 -29 185 -4 88 -7 240 -7 339 -1 402 -24 665 -72 812 -39 120 -117 203 -188 203 -22 -1 -23 -2 -7 -11 16 -9 15 -13 -13 -47 -20 -26 -36 -64 -50 -122 -39 -160 -34 -153 -55 -85 -14 46 -16 80 -12 151 6 102 27 163 71 204 73 67 261 -14 348 -150 45 -70 92 -232 152 -525 64 -309 87 -385 190 -633 88 -210 106 -271 106 -367 -1 -118 -45 -184 -192 -280 -38 -26 -68 -48 -66 -50 1 -1 53 4 113 11 84 11 119 21 147 39 21 14 40 25 43 25 3 0 71 -38 152 -84 420 -238 759 -351 1088 -363 173 -7 289 6 409 44 241 76 393 205 501 428 83 170 100 252 99 470 -1 154 -4 198 -27 305 -72 342 -228 662 -453 926 -89 106 -346 367 -494 503 -126 115 -400 352 -384 331 6 -8 74 -91 150 -184 318 -389 418 -520 561 -738 166 -254 271 -503 294 -702 17 -144 7 -411 -19 -506 -41 -149 -98 -248 -192 -332 -206 -187 -520 -208 -960 -66 l-105 34 -16 69 c-27 115 -95 266 -150 336 -16 20 -29 40 -29 43 0 4 33 39 73 79 75 75 135 176 158 266 l11 44 131 -6 c126 -6 176 -15 312 -52 139 -38 437 -206 538 -303 44 -43 46 -38 11 31 -152 300 -461 469 -922 502 -89 7 -92 8 -98 34 -13 58 -28 99 -65 172 l-38 76 42 40 c91 86 176 148 254 184 158 73 247 93 430 94 66 0 119 3 117 7 -8 12 -91 46 -172 70 -67 19 -100 22 -257 22 -154 1 -192 -2 -262 -21 -87 -23 -169 -62 -270 -125 l-63 -40 -77 72 c-42 39 -114 99 -160 132 -46 33 -83 66 -83 73 0 16 55 114 108 191 50 74 180 200 252 246 103 65 230 115 340 136 l45 9 -60 19 c-49 16 -89 19 -220 19 -149 -1 -165 -3 -240 -29 -171 -60 -255 -117 -414 -281 l-113 -117 -62 42 c-33 24 -95 66 -136 93 -82 56 -310 234 -310 242 0 27 163 227 271 332 132 129 214 192 337 257 62 32 98 56 85 56 -69 1 -386 -63 -448 -89 -11 -5 -40 -17 -65 -26 -153 -56 -319 -179 -406 -299 l-21 -28 -119 99 c-160 134 -307 275 -416 400 -72 83 -89 108 -84 126 10 39 133 200 215 283 115 116 267 218 416 280 34 14 -59 17 -176 5 -62 -7 -143 -23 -197 -41 -155 -50 -241 -101 -387 -225 -48 -41 -91 -72 -96 -69 -5 3 -35 40 -66 82 -32 43 -68 91 -80 107 -74 99 -187 274 -233 359 l-53 99 69 66 c38 36 95 86 127 111 32 25 70 55 85 67 50 39 240 134 324 162 46 16 117 36 158 46 106 25 110 27 70 36 -71 16 -238 21 -365 10 -238 -21 -357 -57 -562 -172 -29 -16 -45 -21 -52 -14 -13 13 -98 233 -117 305 -27 100 -62 276 -70 349 -9 99 9 144 89 216 64 58 192 126 304 164 126 42 273 48 401 18 42 -11 12 13 -69 53 -116 59 -188 73 -344 67 -130 -4 -223 -25 -312 -70 -15 -8 -39 -18 -52 -22 l-24 -7 7 78 c16 183 52 318 153 572 68 170 45 157 280 157 189 -1 202 -2 278 -28 44 -15 97 -37 118 -48 21 -12 41 -19 43 -16 3 3 -23 37 -58 75 -121 136 -253 222 -373 242 -88 16 -88 16 -74 42 67 127 253 371 384 504 269 273 561 449 979 591 243 83 493 138 781 173 129 16 208 18 570 15 369 -3 435 -6 545 -24z m-3320 -847 c0 -4 -38 -59 -84 -123 -134 -186 -193 -282 -267 -435 -80 -166 -148 -363 -179 -521 -28 -143 -26 -140 -46 -124 -20 17 -76 128 -102 204 -120 351 53 732 413 912 68 34 208 84 258 92 4 0 7 -2 7 -5z m2859 -599 c68 -8 128 -18 135 -23 6 -5 31 -12 56 -15 24 -3 46 -11 48 -16 2 -6 21 -14 43 -17 21 -4 39 -10 39 -15 0 -5 6 -9 13 -9 36 0 250 -126 244 -144 -2 -6 -35 -32 -73 -58 -101 -69 -294 -116 -504 -123 -127 -4 -382 11 -505 31 -55 8 -119 17 -142 19 -23 3 -59 9 -80 14 -21 5 -78 19 -128 32 -49 12 -92 23 -94 25 -16 15 166 140 283 195 230 107 406 135 665 104z m2489 -1376 c78 -118 202 -360 236 -459 13 -41 34 -120 45 -175 21 -101 46 -333 38 -342 -3 -2 -17 29 -32 69 -92 249 -226 475 -445 750 -50 62 -89 116 -88 120 5 15 163 137 173 134 6 -1 38 -45 73 -97z m-4547 -2651 c51 -82 161 -229 294 -393 217 -269 250 -331 320 -596 34 -129 56 -193 87 -249 94 -169 118 -222 118 -261 0 -84 -74 -60 -125 41 -13 26 -49 130 -79 231 -86 284 -131 391 -212 506 -58 81 -129 143 -299 261 -77 53 -172 123 -212 155 -73 58 -140 133 -130 144 3 3 28 -10 54 -30 26 -19 80 -50 118 -69 39 -19 97 -55 128 -81 32 -26 65 -47 73 -47 17 0 17 1 -39 83 -68 101 -97 176 -131 330 -4 15 -5 27 -2 27 2 0 19 -24 37 -52z m1434 -816 c237 -191 369 -329 444 -460 60 -107 87 -248 62 -315 -25 -66 -125 -130 -254 -164 -83 -22 -75 -29 -143 126 -64 146 -113 299 -178 557 -31 121 -67 259 -80 307 -14 51 -20 84 -13 79 7 -5 80 -63 162 -130z m447 -1200 c74 -78 208 -247 208 -264 0 -14 -9 -10 -102 43 -98 56 -225 147 -295 212 l-45 41 64 22 c34 11 70 22 79 23 9 0 50 -34 91 -77z"></path><path d="M2056 1916 c-67 -25 -115 -81 -132 -154 -6 -24 -3 -22 24 14 36 50 92 74 168 74 72 0 111 -22 123 -70 5 -19 16 -64 24 -100 48 -206 144 -314 309 -351 100 -21 150 -92 134 -190 -8 -53 7 -43 28 18 22 63 20 109 -6 163 -19 38 -22 63 -23 160 -1 89 -5 125 -20 160 -31 75 -65 118 -118 152 -49 31 -58 33 -157 36 l-105 4 -41 46 c-39 44 -42 46 -105 49 -39 2 -79 -2 -103 -11z m447 -128 c47 -33 51 -38 82 -103 33 -69 44 -165 26 -233 -13 -48 -23 -50 -94 -26 -69 23 -75 37 -37 80 36 42 50 73 50 116 l0 30 -49 -52 c-40 -42 -54 -51 -77 -48 -35 4 -52 37 -78 146 -24 98 -15 107 97 111 36 1 57 -5 80 -21z"></path></g></g></svg>
